{"title":"Lincoln 2012 DVDSCR XViD AC3 - FooKaSM","uid":7959516,"size":2765855429,"categoryP":"video","categoryS":"movies","magnet":"?xt=urn:btih:5c55fad6f5317fd9a112370d449bbee690c3d5d2&amp;dn=Lincoln+2012+DVDSCR+XViD+AC3+-+FooKaSM&amp;tr=udp%3A%2F%2Ftracker.openbittorrent.com%3A80&amp;tr=udp%3A%2F%2Fopen.demonii.com%3A1337&amp;tr=udp%3A%2F%2Ftracker.coppersurfer.tk%3A6969&amp;tr=udp%3A%2F%2Fexodus.desync.com%3A6969","seeders":1,"leechers":1,"uploader":"tykoon123","files":-1,"time":1356541205,"description":"Poster: &lt;a href=&quot;\nhttp://imgr.us/images/tl0ourqfuuv4nxn5bgs.jpg&quot; rel=&quot;nofollow&quot; target=&quot;_NEW&quot;&gt;\nhttp://imgr.us/images/tl0ourqfuuv4nxn5bgs.jpg&lt;/a&gt;\n\nInfo:\n\n\nFormat : AVI\nFormat/Info : Audio Video Interleave\nFormat profile : OpenDML\nFile size : 2.55 GiB\nDuration : 2h 29mn\nOverall bit rate : 2 438 Kbps\nWriting library : VirtualDub build 32842/release\n\nVideo\nID : 0\nFormat : MPEG-4 Visual\nFormat profile : Advanced Simple@L5\nFormat settings, BVOP : 2\nFormat settings, QPel : No\nFormat settings, GMC : No warppoints\nFormat settings, Matrix : Default (H.263)\nMuxing mode : Packed bitstream\nCodec ID : XVID\nCodec ID/Hint : XviD\nDuration : 2h 29mn\nBit rate : 2 171 Kbps\nWidth : 720 pixels\nHeight : 304 pixels\nDisplay aspect ratio : 2.35:1\nFrame rate : 23.976 fps\nColor space : YUV\nChroma subsampling : 4:2:0\nBit depth : 8 bits\nScan type : Progressive\nCompression mode : Lossy\nBits/(Pixel*Frame) : 0.414\nStream size : 2.27 GiB (89%)\nWriting library : XviD 64\n\nAudio\nID : 1\nFormat : AC-3\nFormat/Info : Audio Coding 3\nMode extension : CM (complete main)\nCodec ID : 2000\nDuration : 2h 29mn\nBit rate mode : Constant\nBit rate : 256 Kbps\nChannel(s) : 6 channels\nChannel positions : Front: L C R, Side: L R, LFE\nSampling rate : 48.0 KHz\nBit depth : 16 bits\nCompression mode : Lossy\nStream size : 274 MiB (10%)\nAlignment : Aligned on interleaves\nInterleave, duration : 42 ms (1.00 video frame)\n\nScreens:\n &lt;a href=&quot;\nhttp://imgr.us/images/2ox5tbyg9mlfilrvbhts.png&quot; rel=&quot;nofollow&quot; target=&quot;_NEW&quot;&gt;\nhttp://imgr.us/images/2ox5tbyg9mlfilrvbhts.png&lt;/a&gt; &lt;a href=&quot;\nhttp://www.shotpix.com/images/71197832305265121874.jpg&quot; rel=&quot;nofollow&quot; target=&quot;_NEW&quot;&gt;\nhttp://www.shotpix.com/images/71197832305265121874.jpg&lt;/a&gt; &lt;a href=&quot;\nhttp://www.shotpix.com/images/47995179094187566684.jpg&quot; rel=&quot;nofollow&quot; target=&quot;_NEW&quot;&gt;\nhttp://www.shotpix.com/images/47995179094187566684.jpg&lt;/a&gt; &lt;a href=&quot;\nhttp://www.shotpix.com/images/58962609311104122351.jpg&quot; rel=&quot;nofollow&quot; target=&quot;_NEW&quot;&gt;\nhttp://www.shotpix.com/images/58962609311104122351.jpg&lt;/a&gt; &lt;a href=&quot;\nhttp://www.shotpix.com/images/00663719246758094274.jpg&quot; rel=&quot;nofollow&quot; target=&quot;_NEW&quot;&gt;\nhttp://www.shotpix.com/images/00663719246758094274.jpg&lt;/a&gt; &lt;a href=&quot;\nhttp://www.shotpix.com/images/12117202371905085996.jpg&quot; rel=&quot;nofollow&quot; target=&quot;_NEW&quot;&gt;\nhttp://www.shotpix.com/images/12117202371905085996.jpg&lt;/a&gt;\n\n\n\n\n\n\n\n\n","torrent":{"xt":"urn:btih:5c55fad6f5317fd9a112370d449bbee690c3d5d2","amp;dn":"Lincoln+2012+DVDSCR+XViD+AC3+-+FooKaSM","amp;tr":["udp%3A%2F%2Ftracker.openbittorrent.com%3A80","udp%3A%2F%2Fopen.demonii.com%3A1337","udp%3A%2F%2Ftracker.coppersurfer.tk%3A6969","udp%3A%2F%2Fexodus.desync.com%3A6969"],"infoHash":"5c55fad6f5317fd9a112370d449bbee690c3d5d2","infoHashBuffer":{"type":"Buffer","data":[92,85,250,214,245,49,127,217,161,18,55,13,68,155,190,230,144,195,213,210]},"announce":[],"urlList":[]}}